<?xml version="1.0" encoding="UTF-8" standalone="no"?>
<!-- Created with Inkscape (http://www.inkscape.org/) -->

<svg
   width="210mm"
   height="297mm"
   viewBox="0 0 210 297"
   version="1.1"
   id="svg1"
   xmlns="http://www.w3.org/2000/svg"
   xmlns:svg="http://www.w3.org/2000/svg">
  <defs
     id="defs1" />
  <g
     id="layer1">
    <path
       style="fill:#000000;stroke-width:0.0278905"
       d="m 132.48854,162.59464 c -0.0253,-0.0103 -0.6054,-0.55918 -1.28904,-1.21972 -0.80286,-0.77572 -1.24966,-1.22698 -1.26185,-1.2744 -0.0213,-0.0827 -0.006,-0.2842 0.0275,-0.35728 0.0186,-0.0411 0.007,-0.0483 -0.0806,-0.0483 -0.14544,0 -0.3994,-0.0935 -0.58074,-0.21371 -0.0854,-0.0566 -1.31065,-1.22712 -2.72287,-2.60116 -1.41223,-1.37404 -2.73672,-2.65754 -2.94332,-2.85222 -0.56323,-0.53074 -0.75905,-0.85168 -0.73314,-1.2016 l 0.0121,-0.16411 0.31553,-0.30916 c 0.17354,-0.17004 0.31553,-0.32121 0.31553,-0.33593 0,-0.0147 -0.1765,0.14535 -0.39222,0.35571 -0.38318,0.37367 -0.39544,0.38279 -0.53201,0.39561 -0.18915,0.0178 -0.40484,-0.0477 -0.63224,-0.192 -0.13367,-0.0848 -1.02331,-0.93057 -3.15176,-2.99629 -1.63104,-1.58297 -3.01119,-2.9429 -3.067,-3.02208 -0.11873,-0.16844 -0.2382,-0.47207 -0.2382,-0.60542 0,-0.16686 0.0536,-0.2431 0.43166,-0.61428 l 0.37242,-0.36562 -0.5468,-0.52489 c -0.54622,-0.52433 -0.54686,-0.52483 -0.60661,-0.47269 -0.18821,0.16426 -0.83915,0.69099 -1.11791,0.90459 -3.51005,2.68966 -7.67819,4.40649 -12.00603,4.9452 -1.23553,0.15379 -1.67602,0.17838 -3.202551,0.17869 -1.499828,3.2e-4 -1.947674,-0.0237 -3.1179,-0.16739 -1.020365,-0.12527 -1.826405,-0.27531 -2.962709,-0.55148 -0.666968,-0.16209 -0.772458,-0.19237 -1.636545,-0.46972 -5.674128,-1.82126 -10.577285,-5.70022 -13.620146,-10.7751 -0.28425,-0.47408 -0.796728,-1.40513 -0.918049,-1.6679 -0.03151,-0.0682 -0.165269,-0.35475 -0.297253,-0.6367 -1.410698,-3.0136 -2.166175,-6.45797 -2.164175,-9.8669 0.0021,-3.49218 0.754116,-6.84426 2.252215,-10.03849 1.722419,-3.67251 4.44382,-6.93913 7.806203,-9.37014 2.903058,-2.09892 6.28564,-3.57125 9.783669,-4.25852 2.080133,-0.4087 4.379373,-0.56121 6.412481,-0.42536 2.88622,0.19287 5.51588,0.80185 8.08284,1.87187 2.44866,1.0207 4.68158,2.40095 6.73071,4.16047 0.46371,0.39818 1.70604,1.61324 2.13589,2.089 2.87943,3.18701 4.83753,7.00387 5.7184,11.14669 0.52196,2.45485 0.63247,5.21993 0.31182,7.80188 -0.12686,1.02145 -0.34807,2.15042 -0.62065,3.16751 -0.9234,3.44553 -2.70317,6.75612 -5.11473,9.514 l -0.32543,0.37217 0.53428,0.52349 0.53428,0.52348 0.26124,-0.25165 c 0.14367,-0.13842 0.28896,-0.26544 0.32286,-0.28227 0.15818,-0.0785 0.54832,0.004 0.79663,0.16924 0.0711,0.0472 1.25302,1.17819 2.62645,2.51325 3.92919,3.8194 3.58793,3.47855 3.69072,3.68632 0.1009,0.20395 0.13558,0.38123 0.10536,0.53863 -0.0162,0.0843 -0.0801,0.16571 -0.32089,0.40873 l -0.30068,0.30349 0.36673,-0.34903 c 0.4111,-0.39126 0.46355,-0.41644 0.74661,-0.35843 0.35701,0.0732 0.34625,0.0641 2.18779,1.85002 4.14684,4.02167 4.48549,4.35782 4.56913,4.53549 0.0426,0.0904 0.0902,0.23541 0.10584,0.32224 0.0276,0.15285 0.0307,0.15707 0.0981,0.13201 0.0383,-0.0142 0.12886,-0.0259 0.20121,-0.0259 h 0.13155 l 1.28448,1.25421 1.28449,1.25421 -0.003,0.14626 c -0.002,0.0835 -0.0266,0.19028 -0.0574,0.24891 -0.0794,0.1513 -3.46535,3.45739 -3.60726,3.52223 -0.1124,0.0513 -0.297,0.0658 -0.38465,0.0302 z m -32.04997,-15.414 c 0.99504,-0.0822 1.84088,-0.19192 2.5742,-0.33399 1.99626,-0.38673 3.87038,-1.01842 5.65745,-1.90687 3.10809,-1.54522 5.75301,-3.7408 7.81377,-6.48632 2.18958,-2.91712 3.58632,-6.32766 4.04193,-9.86952 0.13591,-1.05656 0.15623,-1.40791 0.15623,-2.70171 0,-0.96749 -0.0108,-1.35285 -0.0493,-1.7506 -0.15548,-1.6092 -0.38094,-2.79054 -0.81024,-4.24555 -0.66837,-2.26523 -1.89699,-4.67966 -3.37887,-6.63999 -1.09773,-1.45215 -2.48719,-2.86817 -3.92862,-4.00372 -1.85326,-1.45998 -3.91374,-2.59878 -6.19348,-3.42306 -1.96601,-0.71084 -4.00395,-1.12494 -6.21749,-1.26337 -0.677286,-0.0424 -2.506638,-0.0179 -3.1221,0.0417 -1.850858,0.17937 -3.363431,0.48383 -4.937849,0.99393 -4.033044,1.30669 -7.617244,3.7502 -10.26675,6.9993 -1.296528,1.58994 -2.321761,3.2837 -3.12251,5.15859 -0.313894,0.73497 -0.767854,2.0516 -0.957196,2.77618 -0.954839,3.65406 -0.93025,7.39339 0.0722,10.98051 0.182288,0.65228 0.622044,1.89285 0.89617,2.52812 0.921763,2.13612 2.084706,3.97702 3.63345,5.75162 0.466593,0.53464 1.677295,1.72423 2.225,2.18621 2.273339,1.91752 4.682094,3.26266 7.491423,4.18351 1.781192,0.58385 3.645583,0.93214 5.61504,1.04895 0.522227,0.031 2.329046,0.0155 2.807522,-0.024 z m -3.400067,-0.38944 c -0.108633,-0.0131 -0.273698,-0.0365 -0.366812,-0.052 -0.09311,-0.0155 -0.372455,-0.0473 -0.620758,-0.0707 -0.248303,-0.0234 -0.508599,-0.0612 -0.578434,-0.0841 -0.06984,-0.0229 -0.260295,-0.0538 -0.423244,-0.0688 -0.162949,-0.015 -0.372455,-0.0514 -0.465569,-0.0811 -0.09311,-0.0296 -0.291908,-0.0729 -0.441765,-0.0962 -0.149857,-0.0233 -0.317645,-0.0607 -0.372861,-0.0833 -0.05522,-0.0226 -0.190596,-0.0535 -0.300837,-0.0688 -0.110244,-0.0153 -0.257132,-0.053 -0.326423,-0.0838 -0.06929,-0.0309 -0.196187,-0.0688 -0.281993,-0.0842 -0.08581,-0.0155 -0.21364,-0.0523 -0.284073,-0.0818 -0.07044,-0.0295 -0.217071,-0.0718 -0.325853,-0.0939 -0.108782,-0.0222 -0.212254,-0.0518 -0.22994,-0.0658 -0.01768,-0.014 -0.120049,-0.0519 -0.227483,-0.0841 -0.107431,-0.0322 -0.210823,-0.0712 -0.229765,-0.0865 -0.01894,-0.0154 -0.115153,-0.0509 -0.213806,-0.0789 -0.211114,-0.06 -0.438227,-0.14768 -0.620882,-0.23956 -0.07212,-0.0363 -0.149067,-0.066 -0.170991,-0.066 -0.02192,0 -0.130069,-0.0434 -0.240324,-0.0965 -0.110252,-0.0531 -0.211069,-0.0966 -0.224034,-0.0967 -0.04932,-3.1e-4 -1.701489,-0.82499 -1.949172,-0.97287 -0.08138,-0.0486 -0.252796,-0.14924 -0.380919,-0.22367 -0.128123,-0.0744 -0.258346,-0.15698 -0.289384,-0.18345 -0.03105,-0.0265 -0.106773,-0.0684 -0.168307,-0.0932 -0.06153,-0.0248 -0.119527,-0.0572 -0.128875,-0.0719 -0.0093,-0.0148 -0.10502,-0.0821 -0.212608,-0.14971 -0.270609,-0.16993 -0.369689,-0.23703 -0.473235,-0.32048 -0.04905,-0.0395 -0.173159,-0.12778 -0.27578,-0.19609 -0.102622,-0.0683 -0.212877,-0.14761 -0.245003,-0.17623 -0.03214,-0.0286 -0.110386,-0.0892 -0.173899,-0.13473 -0.101067,-0.0724 -0.261371,-0.19567 -0.619103,-0.47615 -0.101946,-0.0799 -0.139214,-0.11151 -0.581247,-0.49249 -0.459804,-0.39629 -1.292251,-1.20967 -1.645753,-1.60805 -0.181162,-0.20417 -0.396052,-0.43983 -0.477525,-0.5237 -0.08147,-0.0839 -0.148137,-0.16032 -0.148137,-0.16989 0,-0.01 -0.07301,-0.10397 -0.16224,-0.20976 -0.08924,-0.1058 -0.213032,-0.25758 -0.275113,-0.33728 -0.06207,-0.0797 -0.128509,-0.16104 -0.147633,-0.18073 -0.01911,-0.0197 -0.09169,-0.11705 -0.161257,-0.21634 -0.06957,-0.0993 -0.196769,-0.27001 -0.282666,-0.3794 -0.08589,-0.10938 -0.156174,-0.21108 -0.156174,-0.22597 0,-0.0149 -0.03491,-0.0716 -0.07759,-0.12601 -0.159938,-0.20389 -0.20329,-0.26721 -0.247007,-0.3608 -0.0247,-0.0529 -0.06768,-0.12108 -0.09551,-0.15162 -0.02785,-0.0305 -0.112935,-0.15793 -0.189115,-0.28311 -0.07617,-0.12519 -0.178868,-0.29267 -0.228207,-0.37218 -0.170651,-0.27504 -0.95049,-1.7742 -1.000177,-1.92274 -0.01777,-0.0531 -0.06231,-0.14721 -0.09901,-0.20919 -0.03672,-0.062 -0.06674,-0.13053 -0.06674,-0.15233 0,-0.0218 -0.03768,-0.11375 -0.08376,-0.20434 -0.04607,-0.0906 -0.08416,-0.18314 -0.08465,-0.20566 -4.2e-4,-0.0225 -0.03134,-0.10317 -0.06859,-0.1792 -0.03722,-0.076 -0.09519,-0.21887 -0.128779,-0.31743 -0.115678,-0.3394 -0.19032,-0.53858 -0.232605,-0.62069 -0.02332,-0.0453 -0.05814,-0.16264 -0.07738,-0.26083 -0.01924,-0.0982 -0.05731,-0.22224 -0.08461,-0.27568 -0.02731,-0.0534 -0.06476,-0.17441 -0.08326,-0.26881 -0.01848,-0.0944 -0.05729,-0.22466 -0.0862,-0.28947 -0.0289,-0.0648 -0.06622,-0.20579 -0.08292,-0.3133 -0.01668,-0.1075 -0.04894,-0.23891 -0.07165,-0.29202 -0.02273,-0.0531 -0.06052,-0.21326 -0.08401,-0.3559 -0.02348,-0.14265 -0.06729,-0.33448 -0.09731,-0.42631 -0.03004,-0.0918 -0.06335,-0.26552 -0.07406,-0.38596 -0.01071,-0.12045 -0.04399,-0.32445 -0.07396,-0.45333 -0.02995,-0.12888 -0.07352,-0.42042 -0.09678,-0.64786 -0.02327,-0.22744 -0.05515,-0.49416 -0.07089,-0.59272 -0.0639,-0.40038 -0.08051,-0.81744 -0.08124,-2.04007 -8.4e-4,-1.20103 0.01933,-1.70416 0.08233,-2.06764 0.01445,-0.0834 0.04626,-0.35012 0.07066,-0.59272 0.02441,-0.2426 0.06821,-0.54034 0.09734,-0.66164 0.02911,-0.12131 0.0618,-0.3198 0.07259,-0.4411 0.0108,-0.1213 0.04373,-0.29498 0.0732,-0.38596 0.02945,-0.091 0.0722,-0.28405 0.09497,-0.42904 0.02277,-0.14501 0.0605,-0.30833 0.08385,-0.36293 0.02336,-0.0546 0.05661,-0.19029 0.07389,-0.30152 0.01731,-0.11122 0.05598,-0.25722 0.08599,-0.32445 0.03,-0.0672 0.07235,-0.20566 0.09411,-0.30763 0.02176,-0.10198 0.05903,-0.22219 0.08283,-0.26715 0.02378,-0.045 0.06242,-0.17151 0.08583,-0.28124 0.0234,-0.10973 0.05541,-0.21461 0.07108,-0.23306 0.01567,-0.0184 0.05559,-0.11943 0.08869,-0.22439 0.03311,-0.10497 0.08244,-0.23427 0.109638,-0.28734 0.02718,-0.0531 0.05819,-0.14363 0.0689,-0.20124 0.01071,-0.0576 0.05051,-0.16182 0.08846,-0.23155 0.03794,-0.0697 0.06905,-0.14665 0.0691,-0.17093 0,-0.0242 0.0234,-0.0815 0.05185,-0.12704 0.02844,-0.0456 0.08019,-0.16642 0.114957,-0.2685 0.03478,-0.10207 0.07395,-0.19207 0.08707,-0.19999 0.01311,-0.008 0.04575,-0.0794 0.0725,-0.15882 0.02676,-0.0794 0.07217,-0.174 0.100916,-0.21016 0.02874,-0.0361 0.05237,-0.0796 0.05249,-0.0965 0,-0.0169 0.0651,-0.1548 0.144386,-0.30642 0.07929,-0.15163 0.162307,-0.31291 0.184477,-0.35839 0.02218,-0.0455 0.05727,-0.11372 0.07802,-0.15163 0.02075,-0.0379 0.105874,-0.19896 0.189174,-0.3579 0.08331,-0.15894 0.173684,-0.31091 0.200841,-0.33772 0.02718,-0.0268 0.04938,-0.0651 0.04938,-0.0852 0,-0.02 0.03773,-0.0852 0.08386,-0.14473 0.04612,-0.0596 0.08422,-0.12209 0.08465,-0.13896 4.2e-4,-0.0169 0.03886,-0.0775 0.08543,-0.13474 0.04656,-0.0572 0.08465,-0.11927 0.08465,-0.13785 0,-0.0186 0.0376,-0.08 0.08353,-0.13647 0.04594,-0.0565 0.09184,-0.12952 0.102,-0.16231 0.01017,-0.0328 0.04417,-0.0871 0.07558,-0.1206 0.03142,-0.0335 0.07122,-0.0845 0.08846,-0.11331 0.03134,-0.0523 0.120585,-0.18535 0.280649,-0.41842 0.04686,-0.0682 0.10195,-0.14266 0.122418,-0.16541 0.06872,-0.0764 0.228824,-0.29572 0.264085,-0.36183 0.0192,-0.036 0.05543,-0.0857 0.08048,-0.11033 0.02504,-0.0247 0.09634,-0.10989 0.158413,-0.18939 0.252696,-0.3236 0.533051,-0.65881 0.652444,-0.78009 0.03294,-0.0334 0.104882,-0.11349 0.159867,-0.17784 0.413125,-0.48349 1.365745,-1.42888 1.882236,-1.86794 0.16053,-0.13646 0.332626,-0.28533 0.382444,-0.33082 0.136768,-0.12489 0.515515,-0.42642 0.831064,-0.66164 0.08137,-0.0607 0.168593,-0.1303 0.193837,-0.15478 0.02525,-0.0245 0.07598,-0.0598 0.112734,-0.0785 0.03676,-0.0187 0.144419,-0.0917 0.239256,-0.16226 0.24636,-0.18322 0.324766,-0.23718 0.483969,-0.3331 0.0776,-0.0468 0.198219,-0.12806 0.268055,-0.18068 0.06984,-0.0526 0.169374,-0.1144 0.221199,-0.13727 0.05183,-0.0229 0.132156,-0.0728 0.178516,-0.11088 0.04636,-0.0381 0.100618,-0.0693 0.120573,-0.0693 0.01996,0 0.08421,-0.0372 0.142797,-0.0827 0.05859,-0.0455 0.119443,-0.0827 0.135244,-0.0827 0.0158,0 0.07034,-0.031 0.121208,-0.0689 0.05087,-0.0379 0.104125,-0.0689 0.11835,-0.0689 0.01424,0 0.07626,-0.0357 0.137857,-0.0793 0.0616,-0.0436 0.142861,-0.0884 0.180587,-0.0997 0.03773,-0.0112 0.106684,-0.0479 0.153241,-0.0816 0.04656,-0.0336 0.128266,-0.0758 0.181574,-0.0936 0.05331,-0.0179 0.117426,-0.0506 0.142482,-0.0728 0.02506,-0.0222 0.101435,-0.0595 0.169729,-0.0831 0.06829,-0.0236 0.144479,-0.0608 0.169298,-0.0827 0.02482,-0.0219 0.09928,-0.0586 0.16548,-0.0814 0.0662,-0.0228 0.152983,-0.0666 0.192864,-0.0972 0.03988,-0.0306 0.08365,-0.0557 0.09726,-0.0557 0.02232,0 0.19636,-0.076 0.602502,-0.26318 0.0776,-0.0358 0.179174,-0.0736 0.225731,-0.084 0.04656,-0.0105 0.136552,-0.0483 0.199994,-0.084 0.06344,-0.0357 0.133954,-0.065 0.156702,-0.065 0.02275,0 0.104166,-0.0294 0.180928,-0.0652 0.07676,-0.0359 0.222099,-0.0927 0.322973,-0.12635 0.398501,-0.13281 0.562739,-0.19216 0.64061,-0.23151 0.04471,-0.0226 0.162605,-0.0555 0.261975,-0.0731 0.09937,-0.0176 0.225803,-0.054 0.280963,-0.0809 0.05516,-0.0269 0.179346,-0.0637 0.275964,-0.0818 0.09662,-0.0181 0.230648,-0.0566 0.297837,-0.0857 0.06719,-0.029 0.214771,-0.0668 0.327958,-0.084 0.113187,-0.0171 0.24823,-0.0485 0.300097,-0.0697 0.05186,-0.0212 0.218848,-0.0579 0.371073,-0.0816 0.152226,-0.0237 0.355852,-0.0668 0.452504,-0.0957 0.09665,-0.0289 0.301087,-0.0652 0.454299,-0.0805 0.153214,-0.0154 0.35342,-0.047 0.444906,-0.0703 0.09148,-0.0233 0.369549,-0.0616 0.617917,-0.0851 0.248371,-0.0235 0.52142,-0.0541 0.606774,-0.0679 0.427042,-0.0692 0.978445,-0.0863 2.384276,-0.074 1.207782,0.0105 1.509662,0.0209 1.707082,0.0583 0.13191,0.025 0.44885,0.0642 0.70431,0.0871 0.25545,0.0229 0.56231,0.066 0.68189,0.0959 0.11958,0.0298 0.26694,0.0542 0.32746,0.0542 0.14457,0 0.41925,0.0481 0.54552,0.0955 0.0554,0.0208 0.20771,0.0529 0.33859,0.0714 0.13089,0.0185 0.33042,0.0629 0.44341,0.0987 0.11299,0.0358 0.24632,0.0655 0.29627,0.066 0.05,4.4e-4 0.16067,0.0261 0.24602,0.0568 0.0854,0.0308 0.2543,0.08 0.37543,0.10946 0.12114,0.0294 0.25446,0.0707 0.29627,0.0916 0.0418,0.021 0.15222,0.0532 0.24533,0.0717 0.0931,0.0185 0.23279,0.0617 0.31038,0.096 0.0776,0.0343 0.18552,0.0717 0.23984,0.0832 0.0543,0.0114 0.14466,0.0435 0.20077,0.0712 0.0561,0.0277 0.16404,0.0656 0.23984,0.0841 0.0758,0.0185 0.19368,0.0625 0.26194,0.0978 0.0683,0.0353 0.14445,0.0642 0.1693,0.0643 0.0248,0 0.0855,0.0241 0.1347,0.0534 0.0492,0.0293 0.15508,0.0724 0.23522,0.0956 0.0801,0.0233 0.18586,0.066 0.23496,0.0951 0.0491,0.029 0.12102,0.0617 0.15981,0.0726 0.0581,0.0163 0.70405,0.32789 1.66133,0.80141 0.0938,0.0464 0.19323,0.1027 0.221,0.12514 0.0278,0.0224 0.0949,0.0622 0.14925,0.0884 0.0543,0.0262 0.15589,0.0842 0.22573,0.12893 0.0698,0.0447 0.17776,0.10793 0.23983,0.14048 0.0621,0.0325 0.13844,0.082 0.16968,0.10989 0.0313,0.0279 0.10109,0.0705 0.15519,0.0946 0.0955,0.0426 0.1609,0.0853 0.36674,0.23945 0.0543,0.0406 0.13039,0.0875 0.16911,0.10397 0.0712,0.0304 0.13706,0.0761 0.44447,0.30873 0.0932,0.0705 0.19956,0.14358 0.23631,0.16233 0.0368,0.0187 0.0859,0.0508 0.10916,0.0713 0.0691,0.0607 0.28943,0.23341 0.52314,0.41008 0.55209,0.41737 1.02189,0.83187 1.7486,1.54278 0.731,0.71511 1.12339,1.13937 1.57978,1.7081 0.0931,0.11604 0.21374,0.26514 0.26805,0.33136 0.13292,0.16203 0.27183,0.34479 0.43083,0.56682 0.0271,0.0379 0.0935,0.12474 0.14741,0.19298 0.0539,0.0682 0.1302,0.17988 0.16949,0.24811 0.0393,0.0682 0.11586,0.17989 0.17015,0.24812 0.0543,0.0682 0.11884,0.16748 0.14344,0.22055 0.0246,0.0531 0.0637,0.11732 0.0868,0.14279 0.0709,0.078 0.3897,0.59708 0.60127,0.97902 0.21148,0.38177 0.79043,1.51888 0.83216,1.63445 0.0242,0.0671 0.0615,0.14113 0.083,0.16463 0.0214,0.0235 0.0541,0.0983 0.0726,0.16632 0.0185,0.068 0.0642,0.18232 0.10139,0.25409 0.0372,0.0718 0.0677,0.14624 0.0677,0.16548 0,0.0192 0.0305,0.0972 0.0677,0.17322 0.0372,0.076 0.0954,0.21887 0.12932,0.31743 0.12273,0.35695 0.19478,0.54801 0.23601,0.6259 0.0231,0.0437 0.0568,0.15888 0.0748,0.25596 0.018,0.0971 0.056,0.22102 0.0844,0.27539 0.0284,0.0544 0.0652,0.17042 0.0817,0.25788 0.0166,0.0875 0.0549,0.21371 0.0851,0.28055 0.0303,0.0668 0.07,0.21819 0.0883,0.33634 0.0183,0.11814 0.0508,0.24798 0.0723,0.2885 0.0214,0.0405 0.0586,0.19561 0.0826,0.34461 0.024,0.149 0.0686,0.35155 0.099,0.45011 0.0305,0.0986 0.0686,0.30568 0.0846,0.46028 0.0161,0.15459 0.0474,0.33991 0.0695,0.41181 0.0221,0.0719 0.0539,0.28038 0.0705,0.46327 0.0308,0.33936 0.0646,0.58941 0.11938,0.8839 0.0709,0.38114 0.0711,3.45336 3.1e-4,3.83203 -0.0548,0.29261 -0.0887,0.54353 -0.12018,0.88995 -0.0169,0.18622 -0.0493,0.39929 -0.0718,0.47349 -0.0226,0.0742 -0.0529,0.25694 -0.0674,0.4061 -0.0145,0.14916 -0.0525,0.35169 -0.0844,0.45006 -0.0319,0.0984 -0.0765,0.2975 -0.0993,0.44249 -0.0228,0.145 -0.0608,0.30894 -0.0844,0.36431 -0.0237,0.0554 -0.0558,0.18867 -0.0714,0.29624 -0.0156,0.10757 -0.0474,0.23158 -0.0707,0.27557 -0.0233,0.044 -0.0618,0.16423 -0.0855,0.26717 -0.0237,0.10296 -0.069,0.25095 -0.10063,0.32888 -0.0316,0.0779 -0.074,0.21439 -0.0942,0.30325 -0.0202,0.0889 -0.0651,0.2298 -0.0997,0.31319 -0.13515,0.32538 -0.17617,0.4333 -0.22527,0.59272 -0.0571,0.18545 -0.1433,0.40102 -0.24248,0.60651 -0.0366,0.0758 -0.0747,0.16886 -0.0847,0.20676 -0.01,0.0379 -0.054,0.14336 -0.0977,0.23434 -0.26267,0.54672 -0.43224,0.8908 -0.4687,0.95111 -0.0229,0.0379 -0.0604,0.11234 -0.0832,0.16541 -0.0229,0.0531 -0.0607,0.1275 -0.0841,0.16541 -0.0234,0.0379 -0.0725,0.13246 -0.10897,0.21013 -0.0365,0.0777 -0.0795,0.14916 -0.0957,0.1589 -0.0161,0.01 -0.0445,0.064 -0.0631,0.12069 -0.0186,0.0566 -0.0562,0.12781 -0.0835,0.15814 -0.0274,0.0303 -0.0774,0.10476 -0.11117,0.16541 -0.13812,0.24809 -0.20322,0.35503 -0.2561,0.42072 -0.0306,0.038 -0.0557,0.0842 -0.0557,0.10253 0,0.0184 -0.0271,0.057 -0.0601,0.0859 -0.0331,0.0289 -0.0846,0.10801 -0.11456,0.17584 -0.0299,0.0678 -0.0731,0.14226 -0.0959,0.1654 -0.0518,0.0526 -0.16052,0.20493 -0.23672,0.33157 -0.0319,0.0531 -0.10182,0.15231 -0.15531,0.22054 -0.0535,0.0682 -0.15726,0.2109 -0.23061,0.31704 -0.0734,0.10614 -0.20395,0.27615 -0.29022,0.3778 -0.0863,0.10165 -0.21624,0.26292 -0.2888,0.35839 -0.13466,0.17717 -0.63122,0.74655 -0.82456,0.94549 -0.0589,0.0606 -0.13946,0.15095 -0.17892,0.20068 -0.0917,0.1155 -1.10043,1.0904 -1.3053,1.26148 -0.0854,0.0713 -0.17424,0.15104 -0.19752,0.17725 -0.0521,0.0586 -0.56554,0.47972 -0.85835,0.70391 -0.11882,0.091 -0.3014,0.23365 -0.40573,0.31704 -0.10433,0.0834 -0.21073,0.16403 -0.23644,0.1792 -0.0709,0.0418 -0.33187,0.22381 -0.47462,0.33099 -0.0698,0.0524 -0.17141,0.1206 -0.22573,0.15145 -0.0543,0.0308 -0.15589,0.0995 -0.22573,0.15262 -0.0698,0.0531 -0.19247,0.12664 -0.27251,0.16346 -0.08,0.0368 -0.15392,0.0802 -0.16416,0.0964 -0.0102,0.0162 -0.0654,0.0547 -0.12251,0.0856 -0.0571,0.0308 -0.17374,0.0983 -0.25909,0.1499 -0.29432,0.17782 -0.65339,0.37639 -0.91703,0.50711 -0.0931,0.0462 -0.18834,0.0957 -0.21162,0.11002 -0.0427,0.0263 -0.92346,0.44356 -1.27732,0.60512 -0.10505,0.048 -0.20765,0.0872 -0.22801,0.0872 -0.0204,0 -0.0995,0.0312 -0.17581,0.0695 -0.0763,0.0382 -0.20524,0.0887 -0.28643,0.11208 -0.0812,0.0234 -0.15471,0.0538 -0.16338,0.0676 -0.009,0.0137 -0.10646,0.0513 -0.2173,0.0836 -0.11085,0.0322 -0.22779,0.0745 -0.25987,0.0939 -0.0321,0.0194 -0.12034,0.0498 -0.19614,0.0676 -0.0758,0.0178 -0.18413,0.0554 -0.24073,0.0836 -0.0566,0.0282 -0.17616,0.0645 -0.26567,0.0807 -0.0895,0.0162 -0.21986,0.0541 -0.28965,0.0842 -0.0698,0.0301 -0.20496,0.0687 -0.30038,0.0856 -0.0954,0.0169 -0.22122,0.0545 -0.27956,0.0836 -0.0583,0.0291 -0.19598,0.0653 -0.30587,0.0805 -0.10988,0.0152 -0.24621,0.0466 -0.30296,0.0698 -0.0567,0.0232 -0.22453,0.0611 -0.37286,0.0842 -0.14833,0.0232 -0.35223,0.066 -0.4531,0.0951 -0.10088,0.0291 -0.31075,0.0652 -0.4664,0.0802 -0.15564,0.015 -0.33533,0.0453 -0.39931,0.0674 -0.064,0.022 -0.29217,0.0542 -0.50707,0.0714 -0.39365,0.0315 -0.53193,0.0501 -0.8422,0.1135 -0.2027,0.0414 -3.492461,0.0615 -3.8092,0.0233 z m 0.103839,-3.37541 c 0.01094,-0.0606 0.02061,-0.73738 0.02151,-1.50386 0.0012,-1.04533 0.01009,-1.40185 0.03548,-1.42667 0.02554,-0.025 0.427279,-0.0331 1.634944,-0.0331 h 1.601084 l 0.0439,0.0613 c 0.0384,0.0536 0.044,0.2438 0.0444,1.50938 3.2e-4,0.79646 0.0114,1.46498 0.0247,1.48561 0.0273,0.042 0.11624,0.0367 0.52503,-0.0314 0.13967,-0.0232 0.3608,-0.0507 0.49139,-0.061 0.13059,-0.0103 0.32897,-0.0415 0.44085,-0.0695 0.11188,-0.0279 0.30976,-0.0659 0.43975,-0.0842 0.12999,-0.0183 0.32879,-0.0627 0.44178,-0.0985 0.11299,-0.0358 0.24071,-0.0651 0.28382,-0.0651 0.14187,0 0.18494,-0.0558 0.1657,-0.21456 -0.009,-0.077 -0.0425,-0.18886 -0.0736,-0.24851 -0.0311,-0.0597 -0.0715,-0.16905 -0.0897,-0.24311 -0.0182,-0.0741 -0.0559,-0.17408 -0.0839,-0.22227 -0.0279,-0.0482 -0.0702,-0.16169 -0.094,-0.25224 -0.0237,-0.0905 -0.0691,-0.20619 -0.10081,-0.25699 -0.0317,-0.0508 -0.0577,-0.12321 -0.0577,-0.1609 0,-0.0377 -0.0306,-0.13073 -0.0678,-0.20676 -0.0629,-0.1285 -0.10086,-0.23025 -0.24675,-0.66204 -0.0307,-0.091 -0.0808,-0.21177 -0.11119,-0.26843 -0.0986,-0.18372 -0.002,-0.33154 0.24656,-0.37762 0.0784,-0.0145 0.18562,-0.0504 0.23837,-0.0796 0.0528,-0.0293 0.1594,-0.068 0.23699,-0.086 0.0776,-0.018 0.16788,-0.0497 0.20062,-0.0704 0.0328,-0.0207 0.13433,-0.0587 0.22573,-0.0844 0.0914,-0.0257 0.21063,-0.0682 0.26495,-0.0943 0.0543,-0.0262 0.16224,-0.0627 0.23984,-0.0813 0.0776,-0.0185 0.17917,-0.0566 0.22573,-0.0845 0.0466,-0.0279 0.13544,-0.0594 0.19751,-0.0699 0.0621,-0.0105 0.15486,-0.0426 0.20618,-0.0712 0.0513,-0.0286 0.1529,-0.0663 0.22573,-0.0837 0.0728,-0.0174 0.17686,-0.0531 0.23117,-0.0793 0.1448,-0.0699 0.27757,-0.0925 0.32383,-0.055 0.0216,0.0176 0.0477,0.0714 0.058,0.11961 0.0102,0.0482 0.0415,0.12647 0.0694,0.17388 0.0279,0.0474 0.0597,0.12805 0.0708,0.1792 0.0111,0.0512 0.0569,0.17572 0.10176,0.27681 0.0449,0.1011 0.0817,0.20781 0.0817,0.23713 0,0.0293 0.0302,0.10883 0.0671,0.1767 0.0369,0.0679 0.0816,0.18902 0.0992,0.2692 0.0176,0.0802 0.0556,0.17846 0.0845,0.21841 0.0289,0.04 0.0618,0.11605 0.0731,0.16911 0.0113,0.0531 0.0573,0.17921 0.10227,0.28031 0.0449,0.1011 0.0817,0.20721 0.0817,0.23579 0,0.0699 0.21644,0.50394 0.25127,0.50394 0.0152,0 0.0353,-0.0122 0.0448,-0.0272 0.01,-0.015 0.0853,-0.0466 0.16859,-0.0702 0.0833,-0.0237 0.16613,-0.0603 0.18415,-0.0816 0.018,-0.0212 0.0953,-0.0588 0.17166,-0.0836 0.0764,-0.0248 0.13891,-0.0566 0.13891,-0.0708 0,-0.0141 0.0667,-0.0574 0.14813,-0.0961 0.28693,-0.13632 0.6272,-0.32714 0.71247,-0.39953 0.031,-0.0263 0.10293,-0.0666 0.15977,-0.0895 0.0568,-0.0229 0.12667,-0.0621 0.15519,-0.0871 0.0712,-0.0625 0.22826,-0.16626 0.35459,-0.2341 0.13518,-0.0726 0.211,-0.2047 0.15768,-0.27472 -0.18358,-0.24113 -0.30547,-0.38634 -0.56606,-0.67437 -0.18223,-0.2014 -0.2589,-0.29002 -0.41988,-0.48531 -0.24981,-0.30304 -0.3393,-0.40819 -0.43384,-0.50969 -0.2015,-0.21634 -0.32945,-0.3659 -0.39905,-0.46643 -0.0733,-0.10586 -0.0737,-0.10925 -0.0257,-0.19646 0.0269,-0.0488 0.1634,-0.17929 0.30334,-0.28996 0.13993,-0.11067 0.43574,-0.35102 0.65734,-0.53411 0.22161,-0.18309 0.45084,-0.37011 0.5094,-0.41559 0.11808,-0.0917 0.34221,-0.2757 0.40777,-0.33473 0.0233,-0.021 0.11851,-0.10696 0.21162,-0.19112 0.21927,-0.19819 0.31164,-0.24686 0.39669,-0.209 0.0354,0.0157 0.18211,0.16274 0.32598,0.32662 0.14387,0.16387 0.29072,0.32897 0.32632,0.36687 0.0356,0.0379 0.17856,0.20539 0.31769,0.37218 0.30585,0.36665 0.38935,0.46374 0.48177,0.56017 0.13033,0.13597 0.38404,0.43134 0.44685,0.5202 0.0618,0.0874 0.0628,0.0877 0.1629,0.0468 0.10264,-0.0419 0.42787,-0.35828 0.80483,-0.78293 0.11459,-0.12909 0.23357,-0.26145 0.2644,-0.29412 0.0308,-0.0327 0.10048,-0.11758 0.15479,-0.18867 0.0543,-0.0711 0.13685,-0.1762 0.18341,-0.23355 0.0466,-0.0574 0.11326,-0.13976 0.14822,-0.18312 0.0772,-0.0958 0.26108,-0.37452 0.26049,-0.39494 -0.001,-0.0386 -0.0506,-0.0813 -0.14066,-0.12152 -0.0543,-0.0242 -0.20033,-0.10613 -0.32448,-0.18197 -0.12415,-0.0759 -0.24005,-0.13804 -0.25755,-0.13821 -0.0175,-3.2e-4 -0.0487,-0.0203 -0.0694,-0.0446 -0.0207,-0.0243 -0.10159,-0.0748 -0.1798,-0.11208 -0.24069,-0.11479 -0.36842,-0.18563 -0.45128,-0.2503 -0.0437,-0.0341 -0.0958,-0.062 -0.11582,-0.062 -0.02,0 -0.0723,-0.0288 -0.11612,-0.0639 -0.0439,-0.0351 -0.1242,-0.0808 -0.17851,-0.10152 -0.0543,-0.0207 -0.13465,-0.0664 -0.17852,-0.10153 -0.0439,-0.0351 -0.0935,-0.0639 -0.1102,-0.0639 -0.0168,0 -0.0697,-0.0292 -0.11775,-0.0649 -0.048,-0.0357 -0.11672,-0.074 -0.15266,-0.0851 -0.0359,-0.0111 -0.10894,-0.0576 -0.16224,-0.10331 -0.10806,-0.0927 -0.12944,-0.20984 -0.05,-0.27392 0.0258,-0.0208 0.0713,-0.0875 0.10101,-0.1481 0.0297,-0.0607 0.10349,-0.19092 0.16386,-0.28947 0.0604,-0.0986 0.12802,-0.21642 0.15036,-0.2619 0.0224,-0.0455 0.0929,-0.16335 0.15672,-0.26191 0.0639,-0.0986 0.14621,-0.24172 0.183,-0.31814 0.0368,-0.0764 0.0856,-0.15413 0.10851,-0.17269 0.0229,-0.0186 0.0634,-0.0894 0.09,-0.15742 0.0266,-0.068 0.0586,-0.12367 0.0712,-0.12367 0.0126,0 0.0437,-0.0511 0.0693,-0.11352 0.0256,-0.0624 0.0777,-0.15356 0.11594,-0.20248 0.0382,-0.0489 0.0694,-0.10233 0.0694,-0.11868 0,-0.0164 0.0309,-0.0657 0.0687,-0.10953 0.0378,-0.0439 0.0771,-0.11256 0.0874,-0.15261 0.0388,-0.15116 0.2111,-0.19971 0.33958,-0.0957 0.0455,0.0368 0.12635,0.0815 0.17966,0.0993 0.0533,0.0178 0.12124,0.0539 0.15096,0.0802 0.0535,0.0474 0.16957,0.11151 0.41519,0.22923 0.0698,0.0335 0.16287,0.0901 0.20674,0.12585 0.0439,0.0358 0.0969,0.065 0.11775,0.065 0.0209,0 0.0739,0.0282 0.11776,0.0626 0.0439,0.0344 0.1242,0.0849 0.17851,0.11217 0.0543,0.0273 0.16225,0.0855 0.23984,0.12935 0.0776,0.0439 0.21092,0.11794 0.29627,0.16451 0.20754,0.11325 0.33644,0.18891 0.43146,0.25325 0.10847,0.0734 0.2475,0.0579 0.29176,-0.0327 0.0185,-0.0379 0.0709,-0.14336 0.11632,-0.23433 0.0455,-0.091 0.0909,-0.20678 0.101,-0.25733 0.0101,-0.0506 0.0434,-0.12625 0.074,-0.16822 0.0306,-0.042 0.0695,-0.13706 0.0864,-0.21134 0.017,-0.0743 0.048,-0.16079 0.069,-0.19226 0.0451,-0.0676 0.18831,-0.45885 0.28173,-0.76983 0.0365,-0.1213 0.086,-0.27017 0.1102,-0.33082 0.0242,-0.0607 0.0445,-0.163 0.0452,-0.22744 0.002,-0.17302 -0.0558,-0.21507 -0.32602,-0.23795 -0.29061,-0.0246 -0.534,-0.0657 -0.67442,-0.11379 -0.0621,-0.0213 -0.23983,-0.0516 -0.39503,-0.0673 -0.15519,-0.0158 -0.38374,-0.0537 -0.50789,-0.0843 -0.12415,-0.0306 -0.34215,-0.0668 -0.48446,-0.0805 -0.28541,-0.0275 -0.59011,-0.12192 -0.63035,-0.19539 -0.0351,-0.0641 0.0143,-0.49155 0.0988,-0.85413 0.0371,-0.15921 0.0752,-0.37631 0.0847,-0.48245 0.01,-0.10614 0.0412,-0.27361 0.0704,-0.37217 0.0292,-0.0986 0.0738,-0.3439 0.099,-0.54519 0.0252,-0.2013 0.0641,-0.4087 0.0864,-0.46089 0.0223,-0.0522 0.0406,-0.13083 0.0406,-0.17476 0,-0.0439 0.0261,-0.11224 0.0579,-0.1518 0.0635,-0.0789 0.0281,-0.0777 0.54078,-0.0177 0.13529,0.0158 0.29998,0.0474 0.36599,0.0702 0.066,0.0227 0.24735,0.0538 0.40299,0.069 0.15564,0.0152 0.34013,0.0446 0.40997,0.0654 0.15364,0.0458 0.40158,0.0886 0.64897,0.11201 0.10087,0.01 0.25324,0.0369 0.3386,0.0608 0.28212,0.0789 0.36288,0.0872 0.40181,0.0414 0.0273,-0.0321 0.0367,-0.33743 0.0407,-1.31265 0.003,-0.69896 -0.003,-1.32666 -0.0141,-1.39489 -0.0171,-0.10983 -0.0283,-0.12507 -0.098,-0.13289 -0.0433,-0.005 -0.16395,0.0157 -0.26806,0.0457 -0.10411,0.03 -0.32098,0.069 -0.48193,0.0866 -0.16095,0.0177 -0.38951,0.0564 -0.50789,0.0861 -0.11839,0.0297 -0.33869,0.0664 -0.48954,0.0817 -0.15086,0.0152 -0.32393,0.0448 -0.3846,0.0657 -0.10787,0.0372 -0.36559,0.0784 -0.68642,0.10983 -0.17924,0.0176 -0.2377,-0.0146 -0.26344,-0.14477 -0.008,-0.0406 -0.0278,-0.12351 -0.0439,-0.18416 -0.0602,-0.22629 -0.0805,-0.33815 -0.11253,-0.61948 -0.0181,-0.15876 -0.0559,-0.3593 -0.0841,-0.44563 -0.0282,-0.0863 -0.0594,-0.24797 -0.0692,-0.3592 -0.01,-0.11123 -0.0482,-0.33249 -0.0852,-0.4917 -0.0867,-0.37307 -0.13383,-0.78986 -0.0969,-0.8572 0.0372,-0.0679 0.44118,-0.19039 0.62785,-0.19044 0.0807,-2e-5 0.27745,-0.031 0.43727,-0.0688 0.15983,-0.0378 0.41377,-0.0822 0.56433,-0.0985 0.15055,-0.0164 0.33419,-0.0485 0.40808,-0.0713 0.0739,-0.0229 0.30871,-0.063 0.52182,-0.0891 0.36492,-0.0447 0.38988,-0.0517 0.42872,-0.11929 0.0479,-0.0833 0.021,-0.26726 -0.0836,-0.57292 -0.0955,-0.27914 -0.14112,-0.41387 -0.20057,-0.59273 -0.0303,-0.091 -0.0796,-0.21072 -0.10971,-0.26612 -0.0301,-0.0554 -0.0682,-0.15957 -0.0847,-0.23152 -0.0165,-0.0719 -0.0536,-0.16321 -0.0825,-0.2028 -0.0289,-0.0396 -0.0676,-0.12769 -0.0862,-0.19578 -0.0185,-0.0681 -0.0564,-0.16103 -0.0841,-0.20651 -0.0277,-0.0455 -0.0657,-0.12933 -0.0843,-0.18631 -0.0186,-0.057 -0.0574,-0.1159 -0.0862,-0.13095 -0.0769,-0.0402 -0.18512,-0.0333 -0.22559,0.0143 -0.0195,0.0229 -0.0877,0.0664 -0.15159,0.0967 -0.0639,0.0303 -0.19873,0.10485 -0.2996,0.16572 -0.10087,0.0609 -0.2215,0.1279 -0.26806,0.14891 -0.0466,0.021 -0.11639,0.0624 -0.15519,0.0921 -0.0388,0.0296 -0.10228,0.0632 -0.14108,0.0746 -0.0388,0.0114 -0.0959,0.0427 -0.12697,0.0696 -0.0311,0.0269 -0.10722,0.0758 -0.1693,0.10871 -0.0621,0.0329 -0.18905,0.10245 -0.28216,0.15452 -0.0931,0.0521 -0.21363,0.11479 -0.26781,0.13939 -0.0542,0.0246 -0.13325,0.0733 -0.17568,0.10816 -0.0424,0.0349 -0.11396,0.0713 -0.15894,0.081 -0.045,0.01 -0.11098,0.0479 -0.14668,0.085 -0.11564,0.12027 -0.31452,0.0658 -0.35091,-0.096 -0.01,-0.0444 -0.0374,-0.0964 -0.0609,-0.1154 -0.0235,-0.019 -0.0766,-0.0956 -0.1181,-0.17018 -0.0415,-0.0746 -0.1098,-0.19318 -0.15186,-0.26363 -0.0421,-0.0705 -0.10953,-0.19298 -0.14995,-0.2723 -0.0404,-0.0793 -0.0861,-0.15178 -0.1014,-0.16105 -0.0153,-0.009 -0.0575,-0.0824 -0.0938,-0.16241 -0.0363,-0.0801 -0.0802,-0.1542 -0.0977,-0.16476 -0.0175,-0.0105 -0.0507,-0.0587 -0.0739,-0.10691 -0.0232,-0.0482 -0.0858,-0.16215 -0.13906,-0.25312 -0.0533,-0.091 -0.13106,-0.22744 -0.17276,-0.30326 -0.0417,-0.0758 -0.0851,-0.14404 -0.0964,-0.15163 -0.0113,-0.008 -0.0456,-0.0696 -0.0764,-0.13784 -0.0307,-0.0682 -0.077,-0.14108 -0.10277,-0.16189 -0.0803,-0.0648 -0.058,-0.18124 0.0528,-0.27634 0.0549,-0.0471 0.11608,-0.0856 0.13606,-0.0856 0.02,0 0.0862,-0.0369 0.14715,-0.0819 0.061,-0.0451 0.12574,-0.0823 0.14394,-0.0827 0.0182,-4.2e-4 0.069,-0.0295 0.11287,-0.0647 0.0439,-0.0351 0.1242,-0.0806 0.17852,-0.10104 0.0543,-0.0204 0.12047,-0.0552 0.14701,-0.0772 0.0266,-0.022 0.10908,-0.0696 0.18341,-0.10573 0.0743,-0.0361 0.20498,-0.10914 0.29034,-0.1623 0.0854,-0.0532 0.19945,-0.11578 0.25356,-0.13915 0.0541,-0.0234 0.12393,-0.0647 0.15519,-0.0919 0.0313,-0.0272 0.10125,-0.0658 0.15557,-0.0859 0.0543,-0.0201 0.12184,-0.0558 0.15005,-0.0794 0.0725,-0.0604 0.23838,-0.15764 0.37901,-0.22207 0.066,-0.0302 0.11991,-0.0713 0.11991,-0.0913 0,-0.0605 -0.37887,-0.59967 -0.42136,-0.59967 -0.0115,0 -0.0341,-0.0279 -0.05,-0.062 -0.0264,-0.0565 -0.16428,-0.23595 -0.27617,-0.35946 -0.0246,-0.0271 -0.17564,-0.1951 -0.33569,-0.37329 -0.36175,-0.40273 -0.63779,-0.66519 -0.74666,-0.70991 -0.0787,-0.0323 -0.087,-0.0292 -0.14956,0.0556 -0.0614,0.0833 -0.23035,0.27766 -0.43302,0.49808 -0.0466,0.0506 -0.11899,0.13336 -0.16096,0.18383 -0.042,0.0505 -0.15625,0.18582 -0.25395,0.30077 -0.0977,0.11496 -0.20937,0.25054 -0.24817,0.30128 -0.0388,0.0507 -0.13403,0.1575 -0.21162,0.23725 -0.0776,0.0797 -0.20426,0.22329 -0.28148,0.31901 -0.20017,0.24814 -0.30959,0.33546 -0.39431,0.31468 -0.0582,-0.0143 -0.35995,-0.24957 -0.5693,-0.4439 -0.0599,-0.0556 -0.21907,-0.18774 -0.34913,-0.28983 -0.21121,-0.16578 -0.36922,-0.29429 -0.50831,-0.41342 -0.19014,-0.16284 -0.71506,-0.58989 -0.83454,-0.67895 -0.048,-0.0358 -0.1106,-0.10743 -0.13917,-0.15927 l -0.052,-0.0943 0.0817,-0.10568 c 0.13398,-0.17328 0.24588,-0.30346 0.39717,-0.46205 0.0526,-0.0552 0.0959,-0.10925 0.0962,-0.12011 3.2e-4,-0.0109 0.0633,-0.0868 0.14003,-0.16882 0.0768,-0.082 0.18768,-0.21042 0.24645,-0.28542 0.0588,-0.075 0.1386,-0.16918 0.17739,-0.20932 0.0605,-0.0626 0.28294,-0.31817 0.69239,-0.79545 0.0975,-0.11362 0.0986,-0.11789 0.0584,-0.21203 -0.0258,-0.0604 -0.0812,-0.11757 -0.14903,-0.15394 -0.10061,-0.0539 -0.20558,-0.12123 -0.3755,-0.24073 -0.0385,-0.0271 -0.10641,-0.0647 -0.15086,-0.0835 -0.0444,-0.0188 -0.11866,-0.0654 -0.16491,-0.10338 -0.0463,-0.038 -0.097,-0.0691 -0.11284,-0.0691 -0.0158,0 -0.0677,-0.0271 -0.11538,-0.0603 -0.1,-0.0696 -0.25666,-0.15556 -0.45932,-0.25212 -0.0782,-0.0373 -0.15845,-0.0869 -0.1783,-0.11024 -0.0199,-0.0234 -0.0727,-0.0503 -0.11747,-0.06 -0.0448,-0.01 -0.11053,-0.0396 -0.14618,-0.0666 -0.0357,-0.027 -0.13132,-0.0705 -0.21262,-0.0967 -0.0813,-0.0262 -0.15505,-0.059 -0.16391,-0.073 -0.009,-0.014 -0.0279,-0.0255 -0.0423,-0.0255 -0.0384,0 -0.21665,0.35835 -0.25564,0.51396 -0.0184,0.0736 -0.056,0.17785 -0.0834,0.23158 -0.0274,0.0537 -0.0691,0.16963 -0.0926,0.25758 -0.0235,0.0879 -0.0622,0.18096 -0.0861,0.2067 -0.0239,0.0257 -0.058,0.11356 -0.0759,0.19516 -0.0179,0.0816 -0.0628,0.2039 -0.0997,0.27178 -0.0369,0.0679 -0.0672,0.14739 -0.0672,0.1767 0,0.0293 -0.0368,0.13603 -0.0817,0.23712 -0.0449,0.1011 -0.0907,0.22567 -0.10176,0.27682 -0.011,0.0511 -0.0429,0.13179 -0.0708,0.1792 -0.0279,0.0474 -0.0591,0.12565 -0.0694,0.17388 -0.0102,0.0482 -0.0364,0.10205 -0.058,0.11961 -0.0463,0.0375 -0.17903,0.015 -0.32383,-0.055 -0.0543,-0.0263 -0.15834,-0.0619 -0.23117,-0.0793 -0.0728,-0.0174 -0.1744,-0.0551 -0.22573,-0.0837 -0.0513,-0.0286 -0.1441,-0.0607 -0.20618,-0.0712 -0.0621,-0.0105 -0.15095,-0.042 -0.19751,-0.0699 -0.0466,-0.0279 -0.14814,-0.0659 -0.22573,-0.0845 -0.0776,-0.0185 -0.18552,-0.0551 -0.23984,-0.0813 -0.0543,-0.0262 -0.16859,-0.0673 -0.25395,-0.0915 -0.0854,-0.0242 -0.20548,-0.0692 -0.26696,-0.1 -0.0615,-0.0308 -0.13766,-0.0561 -0.1693,-0.0561 -0.0316,-1e-5 -0.13802,-0.0372 -0.23641,-0.0827 -0.0984,-0.0455 -0.20439,-0.0827 -0.23557,-0.0827 -0.11449,0 -0.24497,-0.0849 -0.2772,-0.18027 -0.0263,-0.0779 -0.0223,-0.10911 0.0251,-0.19735 0.031,-0.0577 0.0825,-0.18237 0.11456,-0.27713 0.14462,-0.42812 0.18097,-0.52554 0.24445,-0.65516 0.0372,-0.076 0.0678,-0.16907 0.0678,-0.20676 0,-0.0377 0.0273,-0.11194 0.0605,-0.16501 0.0332,-0.0531 0.0771,-0.16625 0.0975,-0.25151 0.0204,-0.0853 0.0615,-0.19691 0.0913,-0.24811 0.0298,-0.0512 0.0691,-0.1539 0.0873,-0.22822 0.0182,-0.0743 0.0538,-0.17356 0.0789,-0.22055 0.0252,-0.047 0.0625,-0.15366 0.0829,-0.23706 0.0346,-0.14097 0.0334,-0.15475 -0.0174,-0.1961 -0.03,-0.0245 -0.11977,-0.0529 -0.19944,-0.0633 -0.0797,-0.0103 -0.2042,-0.0416 -0.27674,-0.0695 -0.0725,-0.0279 -0.25164,-0.0659 -0.39801,-0.0845 -0.14637,-0.0186 -0.31779,-0.0517 -0.38092,-0.0737 -0.0631,-0.022 -0.2989,-0.0584 -0.52393,-0.0808 -0.22503,-0.0225 -0.47262,-0.0532 -0.55022,-0.0683 -0.0776,-0.0151 -0.20589,-0.0346 -0.2851,-0.0433 -0.13387,-0.0148 -0.14528,-0.0113 -0.16186,0.0492 -0.01,0.0358 -0.018,0.70435 -0.0182,1.48564 -3.2e-4,1.24067 -0.006,1.42829 -0.0443,1.48181 l -0.0439,0.0613 h -1.603274 c -1.309024,0 -1.609056,-0.007 -1.634786,-0.0371 -0.02212,-0.026 -0.03366,-0.47162 -0.03873,-1.49559 -0.0039,-0.80217 -0.01852,-1.48129 -0.03234,-1.50914 -0.02886,-0.0582 -0.113522,-0.0555 -0.539202,0.0169 -0.13967,0.0238 -0.393617,0.0568 -0.564325,0.0734 -0.170709,0.0166 -0.36346,0.0483 -0.428335,0.0703 -0.06488,0.022 -0.235874,0.0541 -0.38,0.0712 -0.144126,0.0171 -0.320345,0.0536 -0.391599,0.081 -0.07125,0.0274 -0.192292,0.0585 -0.268972,0.0691 -0.07668,0.0106 -0.166395,0.0358 -0.199363,0.056 -0.055,0.0337 -0.05772,0.0487 -0.03297,0.18172 0.01483,0.0797 0.05017,0.1894 0.07851,0.24368 0.02834,0.0543 0.07356,0.17277 0.100472,0.26329 0.02692,0.0905 0.06524,0.18939 0.08517,0.21972 0.01993,0.0303 0.05649,0.13243 0.08126,0.22691 0.02477,0.0945 0.06874,0.21233 0.09771,0.2619 0.02897,0.0496 0.0615,0.13975 0.07228,0.2004 0.01078,0.0606 0.04297,0.14749 0.07153,0.19298 0.02857,0.0455 0.06778,0.14474 0.08715,0.22055 0.01936,0.0758 0.06464,0.19987 0.100607,0.27568 0.03597,0.0758 0.06553,0.1549 0.06568,0.17575 2.78e-4,0.0208 0.03366,0.11057 0.07445,0.19939 0.065,0.14151 0.06991,0.17152 0.03972,0.24273 -0.03531,0.0833 -0.175303,0.16784 -0.277866,0.16784 -0.03118,0 -0.137188,0.0372 -0.235575,0.0827 -0.09839,0.0455 -0.204469,0.0827 -0.235736,0.0827 -0.03127,10e-6 -0.102729,0.024 -0.158806,0.0534 -0.05607,0.0294 -0.176513,0.0741 -0.267638,0.0993 -0.09112,0.0253 -0.194173,0.0635 -0.229,0.085 -0.03482,0.0215 -0.142752,0.0587 -0.239839,0.0826 -0.09708,0.024 -0.21461,0.0661 -0.261167,0.0936 -0.04656,0.0275 -0.135438,0.0587 -0.197514,0.0692 -0.06208,0.0105 -0.154857,0.0426 -0.206179,0.0712 -0.05132,0.0286 -0.152904,0.0666 -0.22573,0.0844 -0.07283,0.0178 -0.195903,0.0611 -0.273498,0.0962 -0.205519,0.0931 -0.324487,0.076 -0.324487,-0.0467 0,-0.0247 -0.0317,-0.10598 -0.07044,-0.18058 -0.03874,-0.0746 -0.07857,-0.17904 -0.0885,-0.23211 -0.0099,-0.0531 -0.04617,-0.15231 -0.08055,-0.22055 -0.03437,-0.0682 -0.07791,-0.18609 -0.09674,-0.2619 -0.01883,-0.0758 -0.0574,-0.17654 -0.08572,-0.22383 -0.02831,-0.0473 -0.06553,-0.15 -0.0827,-0.22822 -0.01717,-0.0782 -0.05036,-0.17078 -0.07376,-0.20567 -0.0234,-0.0349 -0.06295,-0.13069 -0.08789,-0.21287 -0.02494,-0.0822 -0.06746,-0.19286 -0.0945,-0.24594 -0.02704,-0.0531 -0.06381,-0.15503 -0.08172,-0.22657 -0.03521,-0.14065 -0.193319,-0.48201 -0.234876,-0.50711 -0.01404,-0.008 -0.04099,-0.003 -0.0599,0.0125 -0.01891,0.0153 -0.106076,0.0541 -0.193707,0.0861 -0.08763,0.032 -0.174462,0.0761 -0.192955,0.0978 -0.01849,0.0218 -0.07633,0.0474 -0.128539,0.057 -0.0522,0.01 -0.110732,0.036 -0.130063,0.0588 -0.01933,0.0227 -0.09914,0.0719 -0.177356,0.10913 -0.202658,0.0966 -0.359334,0.18256 -0.459325,0.25213 -0.04764,0.0331 -0.09956,0.0603 -0.115373,0.0603 -0.01581,0 -0.06668,0.0312 -0.113043,0.0693 -0.04636,0.0381 -0.126691,0.0883 -0.178516,0.11147 -0.100159,0.0448 -0.260228,0.14655 -0.339947,0.21602 -0.02651,0.0231 -0.100441,0.068 -0.164283,0.0999 -0.135971,0.0678 -0.214693,0.20503 -0.159494,0.2781 0.140207,0.18558 0.238959,0.3069 0.352783,0.43339 0.07264,0.0807 0.171761,0.19081 0.220279,0.24464 0.139084,0.15431 0.220065,0.24842 0.505337,0.58728 0.302286,0.35906 0.379546,0.44855 0.503864,0.58356 0.105396,0.11446 0.179732,0.20443 0.261728,0.31677 0.06025,0.0825 0.06039,0.085 0.0086,0.16216 -0.05023,0.0748 -0.2295,0.2342 -0.463876,0.41242 -0.105049,0.0799 -0.506203,0.41087 -0.621706,0.51297 -0.03104,0.0274 -0.158011,0.13071 -0.282163,0.2295 -0.227434,0.18097 -0.399957,0.32361 -0.488253,0.40366 -0.227547,0.20633 -0.495942,0.41307 -0.555052,0.42757 -0.09055,0.0222 -0.108478,0.007 -0.404101,-0.33312 -0.131627,-0.15162 -0.262614,-0.29602 -0.291086,-0.32087 -0.02848,-0.0249 -0.09886,-0.10549 -0.156421,-0.17919 -0.05756,-0.0737 -0.184532,-0.22705 -0.282163,-0.34078 -0.09763,-0.11371 -0.212759,-0.2485 -0.255842,-0.29951 -0.04308,-0.051 -0.116809,-0.13245 -0.163841,-0.18096 -0.04703,-0.0485 -0.135911,-0.14944 -0.197513,-0.22428 -0.0616,-0.0748 -0.119023,-0.14229 -0.127606,-0.14987 -0.0086,-0.008 -0.05081,-0.0596 -0.09385,-0.11562 -0.07213,-0.0939 -0.08414,-0.0994 -0.153695,-0.0709 -0.100509,0.0413 -0.459683,0.38354 -0.759775,0.72408 -0.133622,0.15163 -0.272,0.3067 -0.307517,0.34461 -0.212851,0.22719 -0.701404,0.8706 -0.74381,0.97957 -0.02953,0.0759 -0.0078,0.10696 0.113212,0.16145 0.134395,0.0605 0.37889,0.21026 0.389796,0.23871 0.0049,0.0128 0.05567,0.038 0.112865,0.0563 0.05719,0.0182 0.139881,0.0623 0.18375,0.098 0.04387,0.0357 0.09218,0.0649 0.107356,0.0649 0.02949,0 0.381171,0.19843 0.441659,0.24921 0.01991,0.0168 0.09126,0.0542 0.158518,0.0833 0.06725,0.0291 0.137668,0.071 0.156481,0.0931 0.01882,0.0222 0.0808,0.0551 0.137756,0.0732 0.05696,0.0181 0.139445,0.0622 0.183313,0.0979 0.04387,0.0357 0.09466,0.0653 0.112864,0.0657 0.01819,4.1e-4 0.08299,0.0377 0.143944,0.0827 0.06096,0.0451 0.126648,0.0819 0.14597,0.0819 0.04631,0 0.201911,0.12896 0.240415,0.19926 0.02403,0.0439 0.01865,0.0709 -0.0255,0.12932 -0.05066,0.0669 -0.105499,0.16047 -0.27421,0.46757 -0.03105,0.0565 -0.08224,0.13929 -0.113792,0.18398 -0.03155,0.0447 -0.08003,0.12467 -0.107739,0.17774 -0.06347,0.12156 -0.127803,0.23162 -0.217536,0.37218 -0.09852,0.15432 -0.157879,0.25772 -0.222804,0.3881 -0.03079,0.0618 -0.07965,0.14247 -0.108566,0.1792 -0.0289,0.0367 -0.072,0.10399 -0.09572,0.14948 -0.09315,0.1786 -0.203139,0.361 -0.249352,0.41352 -0.02668,0.0303 -0.06332,0.10035 -0.08141,0.15562 -0.04833,0.14761 -0.196563,0.1786 -0.331643,0.0693 -0.04387,-0.0355 -0.123376,-0.0791 -0.176688,-0.0968 -0.05331,-0.0178 -0.11841,-0.0513 -0.144671,-0.0745 -0.05057,-0.0447 -0.211596,-0.13449 -0.421486,-0.23499 -0.06984,-0.0335 -0.162862,-0.09 -0.20673,-0.12578 -0.04387,-0.0357 -0.09686,-0.065 -0.117754,-0.065 -0.02088,0 -0.07389,-0.0293 -0.117755,-0.0652 -0.04387,-0.0358 -0.111503,-0.0747 -0.1503,-0.0865 -0.03882,-0.0117 -0.10539,-0.0498 -0.147986,-0.0846 -0.04259,-0.0348 -0.105831,-0.0721 -0.140537,-0.0828 -0.0347,-0.0108 -0.09508,-0.0425 -0.134177,-0.0706 -0.07411,-0.0532 -0.242911,-0.14594 -0.441226,-0.24244 -0.0639,-0.0311 -0.132118,-0.0753 -0.151586,-0.0982 -0.06261,-0.0737 -0.28244,-0.0344 -0.28244,0.0505 0,0.0193 -0.0444,0.1212 -0.09867,0.22647 -0.05427,0.10527 -0.09876,0.21001 -0.09886,0.23275 0,0.0227 -0.03819,0.11579 -0.08463,0.20677 -0.04644,0.091 -0.08453,0.19022 -0.08465,0.22055 0,0.0303 -0.02537,0.0955 -0.05614,0.14475 -0.03075,0.0493 -0.07068,0.14854 -0.08871,0.22055 -0.01802,0.072 -0.05657,0.17747 -0.08564,0.23435 -0.02907,0.0569 -0.07236,0.18094 -0.09619,0.27568 -0.02382,0.0948 -0.06772,0.22975 -0.09753,0.3 -0.02979,0.0703 -0.06188,0.19431 -0.07126,0.27568 -0.02676,0.2321 -0.0082,0.24421 0.464223,0.30203 0.220242,0.0269 0.453864,0.0678 0.519171,0.0908 0.0653,0.0229 0.246049,0.0552 0.401664,0.0716 0.155611,0.0164 0.409529,0.0605 0.564262,0.0979 0.154728,0.0374 0.351149,0.0681 0.436487,0.0681 0.192359,0 0.581814,0.12159 0.621494,0.19403 0.03756,0.0686 -0.01134,0.50432 -0.09892,0.88114 -0.03701,0.15921 -0.07525,0.37975 -0.08501,0.4901 -0.0097,0.11034 -0.04046,0.26541 -0.06823,0.3446 -0.02777,0.0792 -0.05935,0.23703 -0.07017,0.35075 -0.02916,0.30657 -0.07234,0.55204 -0.117679,0.66909 -0.02214,0.0572 -0.04025,0.13953 -0.04025,0.18304 0,0.0435 -0.02222,0.10552 -0.04938,0.13783 -0.04793,0.057 -0.05833,0.0579 -0.355851,0.0283 -0.168558,-0.0167 -0.371718,-0.0484 -0.45146,-0.0702 -0.07974,-0.0219 -0.23387,-0.0526 -0.342499,-0.0682 -0.418915,-0.0603 -0.516297,-0.0767 -0.77595,-0.13033 -0.147431,-0.0305 -0.356934,-0.0638 -0.465568,-0.0741 -0.108634,-0.0103 -0.283998,-0.0431 -0.389699,-0.073 -0.105697,-0.0299 -0.226325,-0.0505 -0.268055,-0.0458 -0.07403,0.008 -0.07631,0.0142 -0.09423,0.2429 -0.01008,0.12888 -0.01836,0.66233 -0.01836,1.18544 0,0.52312 0.0083,1.05657 0.01836,1.18545 l 0.01836,0.23433 0.09378,0.009 c 0.05158,0.005 0.153162,-0.0112 0.225733,-0.0356 0.07257,-0.0244 0.277965,-0.0627 0.45643,-0.0849 0.17847,-0.0223 0.407021,-0.0599 0.507895,-0.0836 0.100874,-0.0237 0.284985,-0.0555 0.409138,-0.0706 0.124148,-0.0151 0.359052,-0.0571 0.521998,-0.0933 0.16295,-0.0362 0.423246,-0.0785 0.578436,-0.0941 0.270332,-0.0272 0.284234,-0.0259 0.331539,0.0295 0.02718,0.0318 0.04938,0.0934 0.04938,0.13692 0,0.0435 0.01811,0.12587 0.04025,0.18304 0.04465,0.11528 0.08805,0.36183 0.11536,0.65531 0.0099,0.10614 0.04197,0.26741 0.07131,0.35839 0.02932,0.091 0.06613,0.28947 0.08176,0.44109 0.01563,0.15163 0.05343,0.36873 0.084,0.48245 0.06986,0.25989 0.121644,0.73624 0.08692,0.79963 -0.03991,0.0729 -0.356586,0.17205 -0.620679,0.19438 -0.131912,0.0112 -0.342021,0.046 -0.466908,0.0775 -0.124897,0.0315 -0.379667,0.0745 -0.566161,0.0957 -0.186498,0.0212 -0.363656,0.0512 -0.393682,0.0668 -0.05347,0.0277 -0.266761,0.0635 -0.688805,0.11565 -0.363488,0.0449 -0.365198,0.0684 -0.06931,0.95238 0.119931,0.3583 0.186133,0.53189 0.237979,0.62404 0.03101,0.0551 0.05645,0.12337 0.05651,0.15163 0,0.0282 0.0381,0.12582 0.08454,0.21679 0.04644,0.091 0.08449,0.1831 0.08454,0.20471 0,0.0319 0.119712,0.29793 0.224094,0.49829 0.03407,0.0654 0.179721,0.0649 0.286779,-8.7e-4 0.316893,-0.19521 0.406991,-0.24707 0.429169,-0.24707 0.01365,0 0.06379,-0.0271 0.11144,-0.0603 0.08406,-0.0585 0.212465,-0.1305 0.415868,-0.23324 0.05432,-0.0274 0.134652,-0.0781 0.17852,-0.11252 0.04386,-0.0344 0.09686,-0.0626 0.117754,-0.0626 0.02088,0 0.07389,-0.0287 0.117755,-0.0639 0.04387,-0.0351 0.124198,-0.0808 0.178515,-0.10153 0.05432,-0.0207 0.134647,-0.0664 0.178516,-0.10153 0.04387,-0.0351 0.09686,-0.0639 0.117754,-0.0639 0.02088,0 0.07611,-0.0313 0.122699,-0.0696 0.04659,-0.0383 0.126917,-0.0837 0.178516,-0.1009 0.0516,-0.0172 0.129706,-0.0603 0.173575,-0.0958 0.134684,-0.10894 0.302588,-0.0632 0.342352,0.0934 0.01067,0.042 0.04189,0.10127 0.06932,0.1316 0.04696,0.0519 0.153262,0.22708 0.250922,0.41353 0.02382,0.0455 0.0714,0.11992 0.105722,0.1654 0.03432,0.0455 0.07169,0.11373 0.08304,0.15163 0.01134,0.0379 0.04395,0.0939 0.07247,0.12444 0.02853,0.0305 0.07276,0.10496 0.09832,0.16541 0.02558,0.0604 0.06486,0.13013 0.08732,0.15485 0.02248,0.0247 0.06379,0.0867 0.09185,0.13784 0.138915,0.25297 0.20865,0.37201 0.238277,0.40672 0.0179,0.021 0.05795,0.0852 0.08898,0.14263 0.151712,0.28088 0.223733,0.40377 0.271866,0.46391 0.02895,0.0361 0.05262,0.076 0.05262,0.0886 0,0.0485 -0.173403,0.21271 -0.260871,0.247 -0.05051,0.0198 -0.127723,0.0648 -0.171592,0.0999 -0.04387,0.0351 -0.09686,0.0639 -0.117754,0.0639 -0.02088,0 -0.07389,0.0287 -0.117754,0.0639 -0.04387,0.0351 -0.124199,0.0806 -0.178516,0.10095 -0.05432,0.0204 -0.124152,0.0587 -0.15519,0.0851 -0.03105,0.0264 -0.100874,0.0681 -0.155191,0.0925 -0.05432,0.0245 -0.168593,0.0875 -0.253947,0.14006 -0.08535,0.0525 -0.220683,0.12609 -0.300732,0.16342 -0.08004,0.0374 -0.154455,0.082 -0.165349,0.0992 -0.01088,0.0172 -0.07238,0.0556 -0.136622,0.0852 -0.06425,0.0296 -0.199345,0.10252 -0.300219,0.16194 -0.100869,0.0594 -0.202449,0.11667 -0.225728,0.12721 -0.160392,0.0726 -0.158224,0.13427 0.01269,0.36085 0.05492,0.0728 0.131824,0.1789 0.170903,0.23576 0.03907,0.0569 0.08085,0.10338 0.09283,0.10338 0.01197,0 0.04567,0.0403 0.07487,0.0896 0.05267,0.0889 0.09671,0.14339 0.349738,0.4328 0.434597,0.49709 0.885839,0.94631 0.988662,0.98423 0.08091,0.0299 0.08987,0.026 0.162875,-0.069 0.04249,-0.0553 0.08427,-0.10677 0.09285,-0.11435 0.0086,-0.008 0.066,-0.075 0.127606,-0.14987 0.0616,-0.0748 0.150482,-0.17577 0.197514,-0.22427 0.09244,-0.0953 0.110398,-0.11612 0.510827,-0.59076 0.147103,-0.17437 0.296925,-0.34805 0.332933,-0.38595 0.036,-0.0379 0.175919,-0.19595 0.310923,-0.35121 0.263064,-0.30253 0.325472,-0.35112 0.41526,-0.32327 0.04872,0.0151 0.33463,0.2445 0.547872,0.43957 0.08612,0.0788 0.243196,0.2092 0.349335,0.29004 0.114513,0.0872 0.342337,0.27249 0.524636,0.42663 0.137137,0.11596 0.40298,0.33169 0.719516,0.58389 0.08535,0.068 0.189103,0.1671 0.230552,0.2202 l 0.07537,0.0965 -0.06974,0.10139 c -0.03836,0.0558 -0.129411,0.16761 -0.202336,0.24852 -0.301336,0.33437 -0.3891,0.43547 -0.638086,0.73507 -0.223369,0.26878 -0.288043,0.34295 -0.468769,0.53759 -0.07743,0.0834 -0.18829,0.21118 -0.246345,0.28397 -0.05806,0.0728 -0.152513,0.18756 -0.209896,0.25503 -0.09558,0.11238 -0.101786,0.12982 -0.07391,0.20796 0.01672,0.0469 0.07004,0.10807 0.118447,0.13592 0.04841,0.0279 0.126108,0.0767 0.172666,0.10852 0.240526,0.16448 0.289634,0.19499 0.376388,0.23382 0.05183,0.0232 0.132156,0.0734 0.178516,0.11147 0.04636,0.0381 0.09723,0.0693 0.113043,0.0693 0.01581,0 0.06864,0.0279 0.117391,0.062 0.04875,0.0341 0.133248,0.0843 0.187762,0.11151 0.05451,0.0272 0.175302,0.0911 0.268416,0.14202 0.09311,0.0509 0.289922,0.15027 0.437353,0.22082 0.147429,0.0705 0.305461,0.14701 0.351179,0.16993 0.07863,0.0394 0.08578,0.0382 0.13234,-0.0221 0.0475,-0.0615 0.143844,-0.28861 0.231814,-0.54639 0.02328,-0.0682 0.08291,-0.22951 0.132509,-0.35839 0.0496,-0.12888 0.11946,-0.31697 0.155252,-0.41797 0.03579,-0.101 0.08318,-0.21885 0.105306,-0.2619 0.02212,-0.043 0.05535,-0.13871 0.07384,-0.21259 0.01848,-0.0739 0.06305,-0.19174 0.09903,-0.2619 0.03598,-0.0702 0.07354,-0.171 0.08347,-0.22406 0.0099,-0.0531 0.04975,-0.15752 0.0885,-0.23212 0.03874,-0.0746 0.07044,-0.15681 0.07044,-0.18271 0,-0.12013 0.150965,-0.13124 0.366811,-0.027 0.05432,0.0263 0.158344,0.0619 0.231174,0.0793 0.07283,0.0174 0.174404,0.0551 0.22573,0.0837 0.05132,0.0286 0.144103,0.0607 0.206179,0.0712 0.06208,0.0105 0.150957,0.0419 0.197514,0.0697 0.04656,0.0278 0.165624,0.0709 0.264593,0.0958 0.09897,0.0249 0.206896,0.0619 0.239838,0.0822 0.03294,0.0203 0.12973,0.0563 0.215084,0.0801 0.08535,0.0238 0.205488,0.0685 0.266966,0.0993 0.06148,0.0308 0.137662,0.0561 0.169297,0.0561 0.03164,1e-5 0.138021,0.0372 0.236408,0.0827 0.09839,0.0455 0.204396,0.0827 0.235575,0.0827 0.102563,0 0.242561,0.0846 0.277865,0.16784 0.03019,0.0712 0.02528,0.10122 -0.03972,0.24273 -0.04079,0.0888 -0.07429,0.17854 -0.07444,0.19939 -2.89e-4,0.0209 -0.02971,0.0999 -0.06568,0.17575 -0.03597,0.0758 -0.08124,0.19987 -0.100608,0.27568 -0.01936,0.0758 -0.05858,0.17506 -0.08715,0.22055 -0.02856,0.0455 -0.06075,0.13233 -0.07153,0.19298 -0.01078,0.0606 -0.0433,0.15083 -0.07228,0.2004 -0.02897,0.0496 -0.07294,0.16742 -0.09771,0.2619 -0.02477,0.0945 -0.06267,0.19854 -0.08421,0.23125 -0.02155,0.0327 -0.05425,0.11954 -0.07266,0.19298 -0.01841,0.0734 -0.06405,0.1934 -0.101412,0.26661 -0.03737,0.0732 -0.07556,0.196 -0.08488,0.27288 -0.01946,0.16054 0.02338,0.21364 0.173651,0.21521 0.04747,4.3e-4 0.156147,0.0251 0.241501,0.0548 0.08535,0.0296 0.312012,0.0791 0.503689,0.10989 0.191673,0.0308 0.371673,0.0682 0.399999,0.083 0.02832,0.0148 0.182585,0.0397 0.3428,0.0553 0.417866,0.0407 0.762113,0.0878 0.827409,0.11315 0.03104,0.0121 0.113415,0.0194 0.183058,0.0161 0.124248,-0.006 0.126999,-0.008 0.146511,-0.11607 z m -7.342684,-8.65812 c -0.03037,-0.0357 -0.02598,-0.0624 0.0261,-0.15852 0.116362,-0.21481 0.202246,-0.35652 0.258177,-0.42599 0.03063,-0.038 0.05568,-0.0802 0.05568,-0.0937 0,-0.0135 0.04444,-0.0876 0.09876,-0.16479 0.05432,-0.0772 0.09876,-0.15556 0.09876,-0.17426 0,-0.0187 0.0254,-0.0564 0.05643,-0.0839 0.03104,-0.0275 0.05643,-0.0649 0.05643,-0.0832 0,-0.0183 0.03759,-0.0795 0.08353,-0.13599 0.04594,-0.0565 0.09221,-0.12952 0.102817,-0.16231 0.0106,-0.0328 0.0492,-0.098 0.08576,-0.14491 0.03656,-0.0469 0.06648,-0.0974 0.06648,-0.11226 0,-0.0148 0.03774,-0.0757 0.08386,-0.13524 0.04613,-0.0596 0.08422,-0.12209 0.08465,-0.13896 4.2e-4,-0.0169 0.03888,-0.0775 0.08543,-0.13474 0.04656,-0.0572 0.08465,-0.11927 0.08465,-0.13785 0,-0.0186 0.03809,-0.0806 0.08465,-0.13784 0.04656,-0.0572 0.08465,-0.11876 0.08465,-0.13672 0,-0.018 0.03774,-0.0814 0.08386,-0.14094 0.04613,-0.0596 0.08422,-0.1221 0.08465,-0.13897 4.2e-4,-0.0169 0.03888,-0.0775 0.08543,-0.13474 0.04656,-0.0572 0.08465,-0.12002 0.08465,-0.13952 0,-0.0195 0.03029,-0.0706 0.06732,-0.1136 0.03702,-0.043 0.08827,-0.12148 0.113872,-0.17442 0.06453,-0.13341 0.191552,-0.34297 0.244796,-0.40387 0.02442,-0.0279 0.06055,-0.0907 0.0803,-0.13946 0.01974,-0.0488 0.05373,-0.10314 0.07552,-0.12081 0.02179,-0.0177 0.0628,-0.0832 0.09113,-0.14565 0.02834,-0.0624 0.07263,-0.13055 0.09843,-0.15136 0.0258,-0.0208 0.04691,-0.0535 0.04691,-0.0727 0,-0.0192 0.04444,-0.098 0.09876,-0.17515 0.05432,-0.0771 0.09876,-0.15203 0.09876,-0.16639 0,-0.0144 0.02942,-0.0612 0.06538,-0.10405 0.03596,-0.0429 0.08177,-0.11784 0.101792,-0.16661 0.02003,-0.0488 0.05424,-0.10314 0.07603,-0.12081 0.02179,-0.0177 0.06343,-0.0847 0.09252,-0.14898 0.0291,-0.0643 0.06668,-0.12518 0.08352,-0.13534 0.01684,-0.0102 0.05655,-0.0707 0.08826,-0.13451 0.03171,-0.0638 0.101268,-0.18426 0.154577,-0.26766 0.05331,-0.0834 0.124127,-0.19989 0.157377,-0.25889 0.03325,-0.059 0.07293,-0.12102 0.08819,-0.13784 0.03119,-0.0344 0.119727,-0.17776 0.248707,-0.40275 0.04781,-0.0834 0.124208,-0.20745 0.16978,-0.27569 0.04557,-0.0682 0.115627,-0.17988 0.15568,-0.24811 0.04005,-0.0682 0.11646,-0.19229 0.169792,-0.27569 0.05333,-0.0834 0.122913,-0.20384 0.154623,-0.26765 0.03171,-0.0638 0.07023,-0.12362 0.0856,-0.1329 0.01537,-0.009 0.06007,-0.0749 0.09932,-0.14588 0.03926,-0.071 0.115012,-0.19723 0.168344,-0.28062 0.05333,-0.0834 0.122913,-0.20384 0.154623,-0.26765 0.03171,-0.0638 0.07023,-0.12362 0.0856,-0.13291 0.01537,-0.009 0.06007,-0.0749 0.09932,-0.14587 0.03926,-0.071 0.114863,-0.19723 0.168014,-0.28063 0.05315,-0.0834 0.121319,-0.20298 0.151485,-0.26575 0.03016,-0.0628 0.06883,-0.12258 0.08593,-0.1329 0.01709,-0.0103 0.06337,-0.0768 0.102822,-0.14778 0.147351,-0.26496 0.212365,-0.37216 0.266534,-0.43944 0.03063,-0.038 0.05568,-0.0818 0.05568,-0.0973 0,-0.0155 0.02991,-0.0665 0.06647,-0.11345 0.03656,-0.0469 0.09687,-0.13928 0.134028,-0.20525 0.23229,-0.41239 0.326569,-0.54417 0.440569,-0.6158 0.126569,-0.0795 0.303607,-0.18164 0.463585,-0.26738 0.06752,-0.0362 0.158649,-0.0951 0.202516,-0.13095 0.04387,-0.0358 0.09612,-0.0652 0.116116,-0.0652 0.01999,0 0.06821,-0.0245 0.107146,-0.0544 0.06887,-0.0529 0.178575,-0.11645 0.449768,-0.26041 0.07262,-0.0386 0.140677,-0.0838 0.151245,-0.10047 0.01056,-0.0167 0.07178,-0.0545 0.136024,-0.084 0.06425,-0.0295 0.186645,-0.0961 0.271999,-0.14801 0.08535,-0.0519 0.214605,-0.1258 0.28722,-0.16415 0.07262,-0.0384 0.139803,-0.082 0.149306,-0.097 0.0095,-0.015 0.07071,-0.0527 0.136023,-0.0836 0.06531,-0.031 0.188586,-0.099 0.27394,-0.15108 0.08536,-0.0521 0.213125,-0.12539 0.283936,-0.16285 0.07081,-0.0374 0.145377,-0.0877 0.165698,-0.11161 0.02033,-0.0239 0.0517,-0.0435 0.06972,-0.0435 0.01802,0 0.09841,-0.0403 0.178651,-0.0896 0.0802,-0.0493 0.21081,-0.12682 0.29014,-0.17231 0.14357,-0.0823 0.31914,-0.18739 0.50731,-0.30359 0.0543,-0.0335 0.20359,-0.12163 0.33171,-0.19574 0.12812,-0.0741 0.29954,-0.17446 0.38092,-0.223 0.0814,-0.0485 0.20511,-0.12091 0.27494,-0.16083 0.38052,-0.21749 0.51181,-0.29465 0.71373,-0.41945 0.0797,-0.0493 0.15971,-0.0896 0.17774,-0.0896 0.018,0 0.0494,-0.0196 0.0697,-0.0435 0.0203,-0.0239 0.0949,-0.0746 0.16569,-0.11258 0.17975,-0.0964 0.36844,-0.20507 0.48298,-0.27801 0.0535,-0.0341 0.11113,-0.062 0.12813,-0.062 0.017,0 0.0536,-0.0246 0.0813,-0.0545 0.0277,-0.0299 0.077,-0.0627 0.10952,-0.0728 0.0325,-0.0101 0.11904,-0.0569 0.19228,-0.10409 0.24338,-0.15672 0.38305,-0.23738 0.41109,-0.23738 0.0153,0 0.0757,-0.0372 0.13425,-0.0827 0.0586,-0.0455 0.12207,-0.0827 0.14108,-0.0827 0.019,0 0.0825,-0.0372 0.14108,-0.0827 0.0586,-0.0455 0.11945,-0.0827 0.13525,-0.0827 0.0158,0 0.068,-0.0287 0.11604,-0.0637 0.048,-0.0351 0.12815,-0.0798 0.17807,-0.0995 0.0499,-0.0196 0.10605,-0.0537 0.12473,-0.0757 0.0187,-0.022 0.0774,-0.0577 0.13044,-0.0794 0.0531,-0.0216 0.1344,-0.0706 0.18075,-0.10868 0.0464,-0.0381 0.0992,-0.0696 0.1174,-0.0701 0.0182,-4.2e-4 0.083,-0.0377 0.14395,-0.0827 0.061,-0.0451 0.12664,-0.0819 0.14597,-0.0819 0.0193,0 0.071,-0.0293 0.11489,-0.0652 0.0439,-0.0358 0.10721,-0.0735 0.14077,-0.0838 0.0336,-0.0102 0.10831,-0.0554 0.16612,-0.10026 0.0578,-0.0449 0.11692,-0.0816 0.13134,-0.0816 0.0144,0 0.0666,-0.029 0.11604,-0.0645 0.0494,-0.0355 0.13108,-0.0804 0.18152,-0.0998 0.0504,-0.0194 0.0917,-0.0448 0.0917,-0.0565 0,-0.0117 0.0556,-0.0467 0.12344,-0.0779 0.0679,-0.0312 0.1409,-0.0736 0.16225,-0.0942 0.0213,-0.0207 0.085,-0.0616 0.14153,-0.0911 0.37197,-0.19394 0.35766,-0.18857 0.40351,-0.15139 0.062,0.0503 0.0547,0.11637 -0.0249,0.22469 -0.0379,0.0515 -0.0929,0.1433 -0.12239,0.20395 -0.0294,0.0606 -0.0746,0.1273 -0.10044,0.14811 -0.0258,0.0208 -0.047,0.0518 -0.047,0.0689 0,0.0171 -0.0286,0.0738 -0.0635,0.12609 -0.0614,0.092 -0.13452,0.21178 -0.28709,0.47015 -0.0403,0.0682 -0.12319,0.1985 -0.18422,0.28947 -0.061,0.091 -0.13131,0.20867 -0.15618,0.26153 -0.0249,0.0529 -0.068,0.12109 -0.0958,0.15163 -0.0278,0.0305 -0.0668,0.0958 -0.0867,0.14511 -0.0199,0.0493 -0.0453,0.0896 -0.0565,0.0896 -0.0111,0 -0.0359,0.0341 -0.0549,0.0758 -0.0191,0.0417 -0.0638,0.11923 -0.0994,0.1723 -0.0356,0.0531 -0.12681,0.19891 -0.20266,0.32409 -0.0759,0.12519 -0.17856,0.29266 -0.22824,0.37218 -0.0497,0.0795 -0.12331,0.2004 -0.16362,0.26863 -0.0403,0.0682 -0.11649,0.19229 -0.1693,0.27569 -0.0528,0.0834 -0.12813,0.20967 -0.16739,0.28062 -0.0393,0.0709 -0.084,0.13659 -0.0993,0.14588 -0.0154,0.009 -0.0539,0.0691 -0.0856,0.1329 -0.0317,0.0638 -0.10129,0.18426 -0.15462,0.26765 -0.0533,0.0834 -0.12995,0.20745 -0.17025,0.27569 -0.0403,0.0682 -0.11677,0.19229 -0.16992,0.27568 -0.0532,0.0834 -0.12132,0.20298 -0.15149,0.26575 -0.0302,0.0628 -0.0688,0.12258 -0.0859,0.13291 -0.0171,0.0103 -0.0632,0.0768 -0.10246,0.14777 -0.0393,0.0709 -0.11486,0.19723 -0.16801,0.28063 -0.0532,0.0834 -0.12132,0.20298 -0.15149,0.26575 -0.0302,0.0628 -0.0688,0.12258 -0.0859,0.1329 -0.0171,0.0103 -0.0632,0.0768 -0.10246,0.14777 -0.0392,0.0709 -0.11496,0.19723 -0.16823,0.28063 -0.0533,0.0834 -0.11525,0.18884 -0.13775,0.23433 -0.0225,0.0455 -0.0735,0.12544 -0.1134,0.17766 -0.0399,0.0522 -0.0725,0.10578 -0.0725,0.11901 0,0.0132 -0.0303,0.0635 -0.0673,0.11181 -0.037,0.0483 -0.0973,0.14155 -0.13402,0.20729 -0.11195,0.20059 -0.14942,0.26201 -0.22953,0.3762 -0.0424,0.0604 -0.077,0.1236 -0.077,0.14046 0,0.0169 -0.0242,0.0521 -0.0538,0.0783 -0.0296,0.0262 -0.0701,0.087 -0.09,0.13523 -0.0199,0.0482 -0.0655,0.12599 -0.10134,0.17291 -0.0359,0.0469 -0.0652,0.0979 -0.0652,0.11338 0,0.0155 -0.0376,0.0743 -0.0835,0.13077 -0.0459,0.0565 -0.0921,0.12952 -0.10262,0.16231 -0.0105,0.0328 -0.0491,0.0947 -0.0858,0.13753 -0.0367,0.0429 -0.0667,0.0939 -0.0667,0.11338 0,0.0195 -0.0381,0.0823 -0.0847,0.13952 -0.0466,0.0572 -0.0846,0.11926 -0.0846,0.13784 0,0.0186 -0.0376,0.08 -0.0835,0.13647 -0.0459,0.0565 -0.0921,0.12952 -0.10261,0.16231 -0.0105,0.0328 -0.0491,0.0947 -0.0858,0.13753 -0.0367,0.0429 -0.0667,0.0946 -0.0667,0.11506 0,0.0204 -0.0318,0.074 -0.0705,0.11903 -0.0388,0.0451 -0.0705,0.0942 -0.0705,0.10929 0,0.0151 -0.0444,0.0905 -0.0988,0.16766 -0.0543,0.0772 -0.0988,0.15203 -0.0988,0.16639 0,0.0144 -0.03,0.0612 -0.0667,0.10405 -0.0367,0.0429 -0.0747,0.10274 -0.0845,0.13307 -0.0303,0.0937 -0.22691,0.35213 -0.30264,0.39777 -0.0395,0.0238 -0.11548,0.0712 -0.16878,0.10525 -0.0533,0.0341 -0.11123,0.062 -0.12873,0.062 -0.0175,0 -0.0492,0.0207 -0.0705,0.0459 -0.0213,0.0252 -0.091,0.0685 -0.15491,0.0962 -0.0639,0.0277 -0.131,0.0677 -0.14907,0.089 -0.0181,0.0213 -0.0737,0.0547 -0.12366,0.0743 -0.0499,0.0196 -0.12665,0.0643 -0.17052,0.0995 -0.0439,0.0351 -0.09608,0.0639 -0.116039,0.0639 -0.01995,0 -0.08421,0.0372 -0.142797,0.0827 -0.05858,0.0455 -0.120645,0.083 -0.137907,0.0835 -0.01727,4.2e-4 -0.08127,0.0376 -0.14223,0.0827 -0.06096,0.0451 -0.124447,0.0823 -0.141079,0.0827 -0.01664,4.2e-4 -0.08012,0.0376 -0.141084,0.0827 -0.06096,0.0451 -0.126647,0.0819 -0.14597,0.0819 -0.01932,0 -0.07103,0.0288 -0.114894,0.0639 -0.04387,0.0351 -0.120108,0.0797 -0.169421,0.099 -0.04931,0.0193 -0.111164,0.0583 -0.137439,0.0867 -0.02628,0.0284 -0.09068,0.0654 -0.143122,0.0823 -0.05244,0.0169 -0.09534,0.0407 -0.09534,0.0529 0,0.0122 -0.06705,0.0532 -0.148999,0.0911 -0.08195,0.0379 -0.166036,0.089 -0.18686,0.1135 -0.02083,0.0245 -0.05218,0.0446 -0.06968,0.0447 -0.0175,0 -0.0755,0.028 -0.128898,0.062 -0.149286,0.0952 -0.286852,0.17641 -0.410812,0.24244 -0.06208,0.0331 -0.153285,0.0897 -0.202686,0.12589 -0.0494,0.0362 -0.101102,0.0658 -0.114891,0.0658 -0.01379,0 -0.07495,0.0369 -0.135912,0.0819 -0.06096,0.0451 -0.124995,0.0823 -0.142301,0.0827 -0.01731,4.2e-4 -0.06332,0.0252 -0.102258,0.0552 -0.06887,0.0529 -0.178576,0.11645 -0.449768,0.26041 -0.07262,0.0386 -0.140678,0.0838 -0.151245,0.10046 -0.01057,0.0167 -0.07178,0.0545 -0.136025,0.084 -0.06425,0.0295 -0.186645,0.0961 -0.271999,0.14801 -0.08535,0.0519 -0.214605,0.1258 -0.287219,0.16416 -0.07262,0.0384 -0.140678,0.0834 -0.151245,0.10011 -0.01057,0.0167 -0.07178,0.0545 -0.136025,0.084 -0.06425,0.0295 -0.186645,0.0961 -0.271999,0.14801 -0.08535,0.0519 -0.212328,0.12664 -0.282164,0.16602 -0.06983,0.0394 -0.196808,0.11423 -0.282162,0.16634 -0.08535,0.0521 -0.208628,0.12009 -0.273941,0.15107 -0.06531,0.031 -0.126522,0.0686 -0.136022,0.0836 -0.0095,0.015 -0.07669,0.0587 -0.149307,0.097 -0.07261,0.0383 -0.201864,0.11238 -0.287219,0.16448 -0.08535,0.0521 -0.208628,0.1201 -0.273941,0.15107 -0.06531,0.031 -0.126521,0.0686 -0.136022,0.0836 -0.0095,0.015 -0.07669,0.0583 -0.149306,0.0961 -0.07261,0.0378 -0.233608,0.12957 -0.35776,0.20383 -0.124152,0.0743 -0.286883,0.1702 -0.361625,0.21323 -0.16767,0.0965 -0.368358,0.21773 -0.498972,0.30137 -0.05432,0.0348 -0.1305,0.0768 -0.169297,0.0934 -0.0388,0.0166 -0.146725,0.0796 -0.239839,0.13997 -0.09311,0.0604 -0.221585,0.13423 -0.285489,0.16406 -0.06391,0.0298 -0.130989,0.0717 -0.14907,0.0929 -0.01808,0.0213 -0.07373,0.0545 -0.123649,0.0737 -0.04992,0.0193 -0.116333,0.0572 -0.147582,0.0844 -0.03125,0.0272 -0.103393,0.0684 -0.160317,0.0916 -0.05692,0.0233 -0.112351,0.0563 -0.123175,0.0734 -0.01082,0.0171 -0.072,0.0553 -0.135955,0.0848 -0.06395,0.0295 -0.159422,0.0839 -0.212155,0.12093 -0.110873,0.0778 -0.178477,0.0849 -0.22998,0.0243 z"
       id="path1" />
  </g>
</svg>
